# xmcd CD database file
#
# Track frame offsets:
#	150
#	36700
#	82465
#	123027
#	163597
#	203120
#	239395
#	274752
#
# Disc length: 4139 seconds
#
# Revision: 0
# Processed by: cddbd v1.4PL0 Copyright (c) Steve Scherf et al.
# Submitted via: CDex 1.50beta10
#
DISCID=72102908
DTITLE=Fredrik Nordström - Live
DYEAR=1900
DGENRE=Jazz
TTITLE0=What is this thing called love
TTITLE1=In your own sweet way
TTITLE2=Spring is here
TTITLE3=Very early
TTITLE4=My song
TTITLE5=Out of nowhere
TTITLE6=Body and soul
TTITLE7=Someday my prince will come
EXTD=
EXTT0=
EXTT1=
EXTT2=
EXTT3=
EXTT4=
EXTT5=
EXTT6=
EXTT7=
PLAYORDER=
